<svg width="292" height="197" viewBox="0 0 292 197" fill="none" xmlns="http://www.w3.org/2000/svg">
<path d="M3.07966 56.572V129.327C3.07966 132.77 -0.238244 136.903 1.89636 139.605C2.15818 139.937 2.37543 140.11 2.37543 140.022C2.37543 139.755 22.686 139.89 34.3841 140.004C35.5697 140.016 36.8649 139.892 37.6469 139.001C38.0329 138.561 38.1943 138.092 38.1999 137.624C38.2296 135.14 36.1781 132.933 36.1781 130.449V59.6953C36.1781 59.0242 36.2612 58.3459 36.443 57.6999C42.0722 37.6972 58.7213 33.3383 66.4597 33.6848C91.8117 36.22 97.2108 55.6331 96.7413 65.0227C94.4013 85.1468 82.18 91.923 73.3993 93.3042C70.4587 93.7667 67.0847 90.1735 64.7106 91.9694C63.4943 92.8895 63.2907 94.3546 63.2907 95.8798V124.976C63.2907 126.522 64.2183 129.062 65.6796 129.565C68.7062 130.607 71.0329 127.404 74.2141 127.048C90.4858 125.229 103.974 115.536 109.065 110.445C127.657 95.2338 129.755 67.9011 128.816 56.2815C120.647 12.9014 86.6474 1.64265 70.3329 1.29054C48.6429 -0.962973 30.7791 10.4454 24.5585 16.4313C8.50218 30.7975 3.54914 49.1777 3.07966 56.572Z" fill="url(#paint0_linear_7_9)" stroke="#343434" stroke-opacity="0.05" stroke-width="0.5"/>
<path d="M4.0974 183.746C1.84388 168.816 13.7218 157.103 19.9424 153.112C37.9705 167.197 37.548 180.342 35.0832 185.154C29.7311 194.732 22.7593 196.422 19.9424 196.07C9.8016 195.788 5.15373 187.736 4.0974 183.746Z" fill="url(#paint1_linear_7_9)" stroke="#343434" stroke-opacity="0.05" stroke-width="0.5"/>
<path d="M150.9 58V23H156.7V52.8H171.7V58H150.9ZM186.607 58.5C183.64 58.5 181.157 57.9 179.157 56.7C177.174 55.5 175.674 53.9167 174.657 51.95C173.657 49.9667 173.157 47.7917 173.157 45.425C173.157 43.1417 173.624 41.0417 174.557 39.125C175.507 37.1917 176.882 35.65 178.682 34.5C180.499 33.3333 182.699 32.75 185.282 32.75C187.549 32.75 189.482 33.2083 191.082 34.125C192.682 35.0417 193.899 36.3083 194.732 37.925C195.582 39.525 196.007 41.3583 196.007 43.425C196.007 43.8917 195.974 44.3833 195.907 44.9C195.857 45.4 195.782 45.9167 195.682 46.45H178.932C179.165 48.2667 179.674 49.7083 180.457 50.775C181.24 51.8417 182.215 52.6167 183.382 53.1C184.549 53.5667 185.807 53.8 187.157 53.8C188.49 53.8 189.774 53.6417 191.007 53.325C192.257 52.9917 193.415 52.5417 194.482 51.975L194.907 56.6C193.957 57.0667 192.782 57.5 191.382 57.9C189.982 58.3 188.39 58.5 186.607 58.5ZM179.182 42.65H190.307C190.307 41.75 190.132 40.9083 189.782 40.125C189.449 39.325 188.907 38.6833 188.157 38.2C187.424 37.7 186.457 37.45 185.257 37.45C183.507 37.45 182.14 37.925 181.157 38.875C180.19 39.825 179.532 41.0833 179.182 42.65ZM205.866 58.5C204.466 58.5 203.207 58.2 202.091 57.6C200.974 57 200.091 56.15 199.441 55.05C198.807 53.95 198.491 52.65 198.491 51.15C198.491 49.75 198.807 48.55 199.441 47.55C200.091 46.5333 200.941 45.6917 201.991 45.025C203.057 44.3583 204.216 43.8333 205.466 43.45C206.732 43.05 207.999 42.7583 209.266 42.575C210.549 42.3917 211.716 42.2917 212.766 42.275C212.716 40.5083 212.307 39.2917 211.541 38.625C210.791 37.9417 209.599 37.6 207.966 37.6C206.916 37.6 205.866 37.75 204.816 38.05C203.766 38.35 202.574 38.875 201.241 39.625L200.666 35.075C201.982 34.3417 203.382 33.775 204.866 33.375C206.366 32.9583 207.899 32.75 209.466 32.75C211.416 32.75 213.049 33.0917 214.366 33.775C215.682 34.4583 216.674 35.5833 217.341 37.15C218.024 38.7167 218.366 40.8083 218.366 43.425V49.525C218.366 50.7417 218.424 51.6667 218.541 52.3C218.657 52.9333 218.882 53.3667 219.216 53.6C219.566 53.8333 220.091 53.95 220.791 53.95H221.466L220.866 58.5H219.316C218.182 58.5 217.241 58.3667 216.491 58.1C215.741 57.85 215.124 57.4917 214.641 57.025C214.174 56.5583 213.774 56 213.441 55.35C212.591 56.3167 211.491 57.0833 210.141 57.65C208.807 58.2167 207.382 58.5 205.866 58.5ZM207.816 54.175C208.599 54.175 209.457 53.975 210.391 53.575C211.324 53.1583 212.124 52.575 212.791 51.825V46.075C211.191 46.125 209.749 46.3333 208.466 46.7C207.182 47.05 206.166 47.575 205.416 48.275C204.682 48.9583 204.316 49.8333 204.316 50.9C204.316 52.0167 204.607 52.8417 205.191 53.375C205.791 53.9083 206.666 54.175 207.816 54.175ZM224.851 58V20.5H230.426V43.725L238.651 33.175H245.101L235.751 44.975L245.326 58H238.851L230.426 46.4V58H224.851ZM161 119.7C159.567 119.7 158.108 119.575 156.625 119.325C155.142 119.075 153.767 118.767 152.5 118.4C151.25 118.017 150.233 117.633 149.45 117.25L150.175 111.1C151.242 111.617 152.408 112.117 153.675 112.6C154.942 113.067 156.267 113.458 157.65 113.775C159.05 114.075 160.458 114.225 161.875 114.225C163.775 114.225 165.292 113.867 166.425 113.15C167.575 112.417 168.15 111.3 168.15 109.8C168.15 108.65 167.842 107.717 167.225 107C166.608 106.283 165.675 105.658 164.425 105.125C163.175 104.575 161.592 103.983 159.675 103.35C157.792 102.733 156.083 102.025 154.55 101.225C153.017 100.408 151.792 99.3583 150.875 98.075C149.975 96.7917 149.525 95.1333 149.525 93.1C149.525 91.2 150 89.5083 150.95 88.025C151.9 86.5417 153.317 85.3833 155.2 84.55C157.083 83.7167 159.408 83.3 162.175 83.3C164.375 83.3 166.442 83.5417 168.375 84.025C170.308 84.5083 171.933 85.0333 173.25 85.6L172.65 91.6C170.717 90.6333 168.883 89.9167 167.15 89.45C165.433 88.9833 163.667 88.75 161.85 88.75C159.917 88.75 158.383 89.0833 157.25 89.75C156.117 90.4167 155.55 91.4583 155.55 92.875C155.55 93.925 155.842 94.775 156.425 95.425C157.008 96.075 157.842 96.6333 158.925 97.1C160.025 97.5667 161.367 98.0417 162.95 98.525C165.45 99.3083 167.567 100.175 169.3 101.125C171.033 102.075 172.342 103.233 173.225 104.6C174.125 105.967 174.575 107.658 174.575 109.675C174.575 110.842 174.375 112.025 173.975 113.225C173.575 114.408 172.867 115.492 171.85 116.475C170.85 117.442 169.467 118.225 167.7 118.825C165.933 119.408 163.7 119.7 161 119.7ZM190.953 119.5C187.986 119.5 185.503 118.9 183.503 117.7C181.519 116.5 180.019 114.917 179.003 112.95C178.003 110.967 177.503 108.792 177.503 106.425C177.503 104.142 177.969 102.042 178.903 100.125C179.853 98.1917 181.228 96.65 183.028 95.5C184.844 94.3333 187.044 93.75 189.628 93.75C191.894 93.75 193.828 94.2083 195.428 95.125C197.028 96.0417 198.244 97.3083 199.078 98.925C199.928 100.525 200.353 102.358 200.353 104.425C200.353 104.892 200.319 105.383 200.253 105.9C200.203 106.4 200.128 106.917 200.028 107.45H183.278C183.511 109.267 184.019 110.708 184.803 111.775C185.586 112.842 186.561 113.617 187.728 114.1C188.894 114.567 190.153 114.8 191.503 114.8C192.836 114.8 194.119 114.642 195.353 114.325C196.603 113.992 197.761 113.542 198.828 112.975L199.253 117.6C198.303 118.067 197.128 118.5 195.728 118.9C194.328 119.3 192.736 119.5 190.953 119.5ZM183.528 103.65H194.653C194.653 102.75 194.478 101.908 194.128 101.125C193.794 100.325 193.253 99.6833 192.503 99.2C191.769 98.7 190.803 98.45 189.603 98.45C187.853 98.45 186.486 98.925 185.503 99.875C184.536 100.825 183.878 102.083 183.528 103.65ZM216.636 119.5C213.67 119.5 211.186 118.9 209.186 117.7C207.203 116.5 205.703 114.917 204.686 112.95C203.686 110.967 203.186 108.792 203.186 106.425C203.186 104.142 203.653 102.042 204.586 100.125C205.536 98.1917 206.911 96.65 208.711 95.5C210.528 94.3333 212.728 93.75 215.311 93.75C217.578 93.75 219.511 94.2083 221.111 95.125C222.711 96.0417 223.928 97.3083 224.761 98.925C225.611 100.525 226.036 102.358 226.036 104.425C226.036 104.892 226.003 105.383 225.936 105.9C225.886 106.4 225.811 106.917 225.711 107.45H208.961C209.195 109.267 209.703 110.708 210.486 111.775C211.27 112.842 212.245 113.617 213.411 114.1C214.578 114.567 215.836 114.8 217.186 114.8C218.52 114.8 219.803 114.642 221.036 114.325C222.286 113.992 223.445 113.542 224.511 112.975L224.936 117.6C223.986 118.067 222.811 118.5 221.411 118.9C220.011 119.3 218.42 119.5 216.636 119.5ZM209.211 103.65H220.336C220.336 102.75 220.161 101.908 219.811 101.125C219.478 100.325 218.936 99.6833 218.186 99.2C217.453 98.7 216.486 98.45 215.286 98.45C213.536 98.45 212.17 98.925 211.186 99.875C210.22 100.825 209.561 102.083 209.211 103.65ZM230.32 119V81.5H235.895V104.725L244.12 94.175H250.57L241.22 105.975L250.795 119H244.32L235.895 107.4V119H230.32ZM264.83 119.5C261.863 119.5 259.38 118.9 257.38 117.7C255.396 116.5 253.896 114.917 252.88 112.95C251.88 110.967 251.38 108.792 251.38 106.425C251.38 104.142 251.846 102.042 252.78 100.125C253.73 98.1917 255.105 96.65 256.905 95.5C258.721 94.3333 260.921 93.75 263.505 93.75C265.771 93.75 267.705 94.2083 269.305 95.125C270.905 96.0417 272.121 97.3083 272.955 98.925C273.805 100.525 274.23 102.358 274.23 104.425C274.23 104.892 274.196 105.383 274.13 105.9C274.08 106.4 274.005 106.917 273.905 107.45H257.155C257.388 109.267 257.896 110.708 258.68 111.775C259.463 112.842 260.438 113.617 261.605 114.1C262.771 114.567 264.03 114.8 265.38 114.8C266.713 114.8 267.996 114.642 269.23 114.325C270.48 113.992 271.638 113.542 272.705 112.975L273.13 117.6C272.18 118.067 271.005 118.5 269.605 118.9C268.205 119.3 266.613 119.5 264.83 119.5ZM257.405 103.65H268.53C268.53 102.75 268.355 101.908 268.005 101.125C267.671 100.325 267.13 99.6833 266.38 99.2C265.646 98.7 264.68 98.45 263.48 98.45C261.73 98.45 260.363 98.925 259.38 99.875C258.413 100.825 257.755 102.083 257.405 103.65ZM278.563 119V94.175H283.613L283.888 97.35C284.755 96.3333 285.763 95.4667 286.913 94.75C288.063 94.0333 289.305 93.675 290.638 93.675C291.038 93.675 291.413 93.7167 291.763 93.8L291.313 99.475C290.997 99.3917 290.68 99.3417 290.363 99.325C290.047 99.2917 289.722 99.275 289.388 99.275C288.255 99.275 287.213 99.5333 286.263 100.05C285.313 100.567 284.647 101.167 284.263 101.85V119H278.563Z" fill="url(#paint2_linear_7_9)"/>
<defs>
<linearGradient id="paint0_linear_7_9" x1="65.3234" y1="1" x2="65.3234" y2="140.045" gradientUnits="userSpaceOnUse">
<stop stop-color="#234292"/>
<stop offset="1" stop-color="#0777AC"/>
</linearGradient>
<linearGradient id="paint1_linear_7_9" x1="20.0651" y1="153.112" x2="20.0651" y2="196.112" gradientUnits="userSpaceOnUse">
<stop stop-color="#234292"/>
<stop offset="1" stop-color="#0877AE"/>
</linearGradient>
<linearGradient id="paint2_linear_7_9" x1="219.5" y1="10" x2="219.5" y2="132" gradientUnits="userSpaceOnUse">
<stop stop-color="#204794"/>
<stop offset="1" stop-color="#0B6EA7"/>
</linearGradient>
</defs>
</svg>
