<svg width="26" height="26" viewBox="0 0 26 26" fill="none" xmlns="http://www.w3.org/2000/svg">
<path d="M19.469 22.1H6.53136C5.86786 22.1286 5.20867 21.9801 4.62148 21.6699C4.03428 21.3596 3.54018 20.8988 3.18983 20.3347C2.83947 19.7705 2.64547 19.1232 2.62774 18.4594C2.61002 17.7955 2.76921 17.1389 3.08896 16.5568L9.55774 5.3144C9.91635 4.72242 10.4216 4.23295 11.0246 3.89322C11.6276 3.5535 12.308 3.375 13.0001 3.375C13.6922 3.375 14.3727 3.5535 14.9757 3.89322C15.5787 4.23295 16.084 4.72242 16.4426 5.3144L22.9114 16.5568C23.2311 17.1389 23.3903 17.7955 23.3725 18.4594C23.3549 19.1232 23.1609 19.7705 22.8105 20.3347C22.4602 20.8988 21.9659 21.3596 21.3788 21.6699C20.7916 21.9801 20.1324 22.1286 19.469 22.1Z" stroke="#C64B52" stroke-width="2" stroke-linecap="round" stroke-linejoin="round"/>
<path d="M11.8361 17.836C11.8361 17.6822 11.8666 17.5298 11.9258 17.3878C11.9849 17.2458 12.0717 17.1169 12.181 17.0087C12.2902 16.9004 12.4199 16.8148 12.5624 16.7569C12.7049 16.6989 12.8574 16.6698 13.0113 16.6712C13.2382 16.6753 13.4589 16.7462 13.6458 16.875C13.8326 17.0039 13.9774 17.185 14.0619 17.3956C14.1464 17.6063 14.1669 17.8372 14.1209 18.0595C14.0748 18.2817 13.9643 18.4855 13.8031 18.6453C13.6419 18.805 13.4371 18.9137 13.2144 18.9578C12.9918 19.0019 12.7611 18.9794 12.5512 18.8929C12.3412 18.8066 12.1615 18.6603 12.0343 18.4722C11.9072 18.2843 11.8382 18.063 11.8361 17.836ZM12.2105 14.9968L12.0649 9.56799C12.0511 9.43749 12.0648 9.30554 12.1054 9.18072C12.1458 9.05589 12.2121 8.94096 12.2999 8.84341C12.3876 8.74585 12.495 8.66785 12.6148 8.61444C12.7347 8.56105 12.8645 8.53345 12.9957 8.53345C13.127 8.53345 13.2568 8.56105 13.3766 8.61444C13.4965 8.66785 13.6037 8.74585 13.6915 8.84341C13.7793 8.94096 13.8456 9.05589 13.8861 9.18072C13.9265 9.30554 13.9404 9.43749 13.9265 9.56799L13.7913 14.9968C13.7913 15.2063 13.708 15.4075 13.5598 15.5557C13.4115 15.7039 13.2105 15.7872 13.0009 15.7872C12.7913 15.7872 12.5902 15.7039 12.442 15.5557C12.2938 15.4075 12.2105 15.2063 12.2105 14.9968Z" fill="#C64B52"/>
</svg>
