<svg width="16" height="20" viewBox="0 0 16 20" fill="none" xmlns="http://www.w3.org/2000/svg">
<path d="M8.00002 0C4.11301 0 1.299 1.167 0.304002 2.828C0.046001 3.258 0 3.724 0 4V16C0 16.276 0.0779993 16.729 0.321 17.175C1.198 18.78 4.11301 20 8.00002 20C11.886 20 14.594 18.864 15.632 17.277C15.856 16.934 16.006 16.423 16 16V4C16 3.724 15.963 3.434 15.838 3.13C15.044 1.212 11.886 0 8.00002 0ZM8.00002 2C9.75302 2 11.39 2.31001 12.562 2.81201C13.539 3.23101 14 3.69 14 4C14 4.31 13.539 4.76899 12.562 5.18799C11.39 5.68999 9.75302 6 8.00002 6C6.24702 6 4.60901 5.68999 3.43701 5.18799C2.46 4.76899 2.00001 4.31 2.00001 4C2.00001 3.69 2.46 3.23101 3.43701 2.81201C4.60901 2.31001 6.24702 2 8.00002 2ZM1.99601 6.70801C3.47201 7.55201 5.58101 8 8.00002 8C10.418 8 12.518 7.56199 13.995 6.71899L14 10C14 10.31 13.539 10.769 12.562 11.188C11.39 11.69 9.75302 12 8.00002 12C6.24702 12 4.60901 11.69 3.43701 11.188C2.46 10.769 2.00001 10.31 2.00001 10L1.99601 6.70801ZM2.00101 12.718C3.42802 13.492 5.58101 14 8.00002 14C10.418 14 12.483 13.529 13.996 12.719L14 16C14 16.31 13.539 16.769 12.562 17.188C11.39 17.69 9.75302 18 8.00002 18C6.24702 18 4.60901 17.69 3.43701 17.188C2.46 16.769 2.00001 16.31 2.00001 16L2.00101 12.718Z" fill="black"/>
</svg>
