<svg width="14" height="21" viewBox="0 0 14 21" fill="none" xmlns="http://www.w3.org/2000/svg">
<path d="M7.15601 0.0123964C6.82501 -0.0438036 6.46399 0.0927964 6.21899 0.387396C1.40999 6.15729 0 9.12839 0 13.0124C0 16.8784 3.134 20.0124 7 20.0124C10.866 20.0124 14 16.8784 14 13.0124C14 11.5864 13.681 10.4954 12.969 9.3564C12.663 8.8674 11.139 6.8619 10.719 6.2312C9.68599 4.6814 8.79599 2.95899 7.93799 0.668593C7.80299 0.309593 7.48701 0.0685964 7.15601 0.0123964ZM4.625 8.07439C4.869 7.99729 5.13 7.9793 5.375 8.1064C5.866 8.3604 6.06601 8.9594 5.81201 9.4504C5.15601 10.7194 4.94101 11.9514 5.03101 12.9814C5.07901 13.5314 4.675 14.0264 4.125 14.0744C3.575 14.1234 3.07901 13.7184 3.03101 13.1684C2.90901 11.7724 3.19501 10.1604 4.03101 8.54339C4.15801 8.29839 4.381 8.15239 4.625 8.07439Z" fill="black"/>
</svg>
