<svg width="14" height="20" viewBox="0 0 14 20" fill="none" xmlns="http://www.w3.org/2000/svg">
<path d="M7.15601 0.0123703C6.82501 -0.0437297 6.46399 0.0926719 6.21899 0.387172C1.40999 6.15347 0 9.12337 0 13.0044C0 16.8684 3.134 20.0004 7 20.0004C10.866 20.0004 14 16.8684 14 13.0044C14 11.5794 13.681 10.4894 12.969 9.35037C12.663 8.86137 11.139 6.85757 10.719 6.22727C9.68599 4.67847 8.796 2.95707 7.938 0.66817C7.803 0.30937 7.48701 0.0684703 7.15601 0.0123703ZM6.718 2.92977C7.38 4.50177 8.241 6.11977 9.062 7.35157C9.531 8.05337 11 10.0124 11.25 10.4124C11.77 11.2434 12 11.9664 12 13.0044C12 15.7644 9.761 18.0014 7 18.0014C4.239 18.0014 2.014 15.7644 2 13.0044C1.984 9.82836 3.224 7.33187 6.718 2.92977ZM5.62399 8.04237C5.37999 8.11937 5.15801 8.29337 5.03101 8.53837C4.19501 10.1544 3.90901 11.7644 4.03101 13.1604C4.07901 13.7104 4.54399 14.1144 5.09399 14.0664C5.64399 14.0184 6.07901 13.5234 6.03101 12.9734C5.94101 11.9434 6.156 10.7434 6.812 9.47537C7.066 8.98537 6.865 8.38637 6.375 8.13237C6.13 8.00557 5.86699 7.96447 5.62399 8.04237Z" fill="black"/>
</svg>
