<svg width="69" height="106" viewBox="0 0 69 106" fill="none" xmlns="http://www.w3.org/2000/svg">
<path d="M1.10851 69.0418V30.6214C1.35876 26.68 3.99886 16.8829 12.5573 9.22532C15.8731 6.03467 25.3949 -0.0463177 36.9563 1.15487C45.6524 1.34255 63.7753 7.34375 68.1296 30.4665C68.6301 36.6601 67.5114 51.2292 57.6017 59.3372C54.8879 62.051 47.6984 67.2172 39.0251 68.187C37.3294 68.3766 36.0893 70.0841 34.476 69.5287C33.6971 69.2606 33.2026 67.9065 33.2026 67.0827V51.5735C33.2026 50.7605 33.3111 49.9796 33.9595 49.4891C35.2249 48.5319 37.0234 50.4472 38.5908 50.2006C43.2711 49.4644 49.7854 45.8525 51.0327 35.1258C51.2829 30.1209 48.4051 19.7732 34.8918 18.4219C30.8256 18.2398 22.1436 20.4951 19.0234 30.7735C18.8285 31.4156 18.7509 32.087 18.7509 32.7581V69.4453C18.7509 71.119 20.2781 72.5307 19.7809 74.1289C19.5436 74.8918 18.3369 75.0983 17.5379 75.0905C11.589 75.0331 1.80368 74.969 0.814461 75.0827C0.76704 75.6025 0.733144 75.7188 0.733144 75.1027C0.733144 75.0955 0.760918 75.0888 0.814461 75.0827C0.924846 73.8726 1.10851 70.476 1.10851 69.0418Z" fill="url(#paint0_linear_131_2268)" stroke="#343434" stroke-opacity="0.05" stroke-width="0.5"/>
<path d="M1.65098 98.4084C0.449797 90.4506 6.78103 84.207 10.0968 82.0799C19.7063 89.5873 19.481 96.5942 18.1673 99.1592C15.3144 104.264 11.5983 105.165 10.0968 104.977C4.69148 104.827 2.21403 100.536 1.65098 98.4084Z" fill="url(#paint1_linear_131_2268)" stroke="#343434" stroke-opacity="0.05" stroke-width="0.5"/>
<defs>
<linearGradient id="paint0_linear_131_2268" x1="34.2861" y1="1" x2="34.2861" y2="75.1147" gradientUnits="userSpaceOnUse">
<stop stop-color="#234292"/>
<stop offset="1" stop-color="#0777AC"/>
</linearGradient>
<linearGradient id="paint1_linear_131_2268" x1="10.1622" y1="82.0799" x2="10.1622" y2="105" gradientUnits="userSpaceOnUse">
<stop stop-color="#234292"/>
<stop offset="1" stop-color="#0877AE"/>
</linearGradient>
</defs>
</svg>
