<svg width="23" height="23" viewBox="0 0 23 23" fill="none" xmlns="http://www.w3.org/2000/svg">
<path fill-rule="evenodd" clip-rule="evenodd" d="M6.72082 14.9166C5.92517 14.1041 5.38551 13.076 5.16878 11.9597C4.95026 10.8403 5.06248 9.68143 5.4917 8.62471C5.91727 7.57392 6.64381 6.6723 7.5801 6.03307C9.47977 4.73564 11.9806 4.73564 13.8802 6.03307C14.8166 6.6723 15.5431 7.57392 15.9686 8.62471C16.3979 9.68143 16.5101 10.8403 16.2915 11.9597C16.0749 13.076 15.5352 14.1041 14.7395 14.9166C13.6858 15.9979 12.24 16.6077 10.7301 16.6077C9.22033 16.6077 7.77454 15.9979 6.72082 14.9166Z" stroke="black" stroke-width="1.5" stroke-linecap="round" stroke-linejoin="round"/>
<path d="M10.7366 7.08669C10.3576 7.12684 10.083 7.4666 10.1231 7.84556C10.1633 8.22451 10.5031 8.49916 10.882 8.45901L10.7366 7.08669ZM12.4399 9.37677C12.5885 9.72772 12.9933 9.89176 13.3443 9.74318C13.6952 9.59461 13.8592 9.1897 13.7107 8.83878L12.4399 9.37677ZM15.3107 14.34C15.0411 14.0708 14.6042 14.0711 14.335 14.3409C14.0657 14.6105 14.0662 15.0474 14.3358 15.3166L15.3107 14.34ZM17.4528 18.4281C17.7225 18.6974 18.1593 18.697 18.4286 18.4272C18.6978 18.1575 18.6974 17.7207 18.4277 17.4514L17.4528 18.4281ZM10.882 8.45901C11.5467 8.38858 12.1793 8.76122 12.4399 9.37677L13.7107 8.83878C13.2132 7.66365 12.0056 6.95223 10.7366 7.08669L10.882 8.45901ZM14.3358 15.3166L17.4528 18.4281L18.4277 17.4514L15.3107 14.34L14.3358 15.3166Z" fill="black"/>
</svg>
