<svg width="19" height="23" viewBox="0 0 19 23" fill="none" xmlns="http://www.w3.org/2000/svg">
<path d="M6.66667 16.79H12C12.7333 16.79 13.3333 16.19 13.3333 15.4567V8.79H15.4533C16.64 8.79 17.24 7.35 16.4 6.51L10.28 0.39C9.76 -0.13 8.92 -0.13 8.4 0.39L2.28 6.51C1.44 7.35 2.02667 8.79 3.21333 8.79H5.33333V15.4567C5.33333 16.19 5.93333 16.79 6.66667 16.79ZM1.33333 19.4567H17.3333C18.0667 19.4567 18.6667 20.0567 18.6667 20.79C18.6667 21.5233 18.0667 22.1233 17.3333 22.1233H1.33333C0.6 22.1233 0 21.5233 0 20.79C0 20.0567 0.6 19.4567 1.33333 19.4567Z" fill="black"/>
</svg>
